<svg width="400" height="400" viewBox="0 0 400 400" fill="none" xmlns="http://www.w3.org/2000/svg">
   <path
      d="M353 246.838L351.793 239.605C351.62 238.744 348.343 219.803 333.166 197.417C326.612 187.602 317.126 176.409 303.673 165.733C307.812 154.368 310.055 141.969 310.055 129.227C310.055 107.874 303.673 87.8995 292.807 71.0242C302.466 63.1031 307.123 54.3211 306.95 44.8502C306.433 26.4251 286.598 12.8215 285.736 12.3049L279.355 8L279.527 15.5767C279.872 24.1865 270.731 30.3857 257.796 36.9292C240.893 26.4251 220.887 20.3982 199.5 20.3982C178.113 20.3982 158.107 26.4251 141.204 36.9292C128.269 30.3857 119.301 24.3587 119.473 15.5767L119.646 8L113.264 12.3049C112.402 12.8215 92.5674 26.4251 92.05 44.8502C91.8775 54.3211 96.5343 63.1031 106.193 71.0242C95.327 87.8995 88.9455 107.874 88.9455 129.227C88.9455 141.969 91.1876 154.368 95.327 165.733C81.8742 176.409 72.3882 187.602 65.8343 197.417C50.6567 219.803 47.3798 238.917 47.2073 239.605L46 246.838L58.073 241.5C41.1708 294.709 68.7663 330.353 69.9736 331.903L72.5607 335.175L81.7017 327.254C107.4 367.376 154.485 384.251 156.554 384.94L173.974 389.417C174.147 389.417 174.319 389.417 174.492 389.589C174.664 389.589 175.009 389.589 175.181 389.761C176.044 389.934 177.079 390.106 177.941 390.278C178.113 390.278 178.458 390.278 178.631 390.45C179.493 390.622 180.528 390.795 181.39 390.795C181.563 390.795 181.908 390.795 182.08 390.967C182.943 391.139 183.805 391.139 184.84 391.311C185.185 391.311 185.357 391.311 185.702 391.483C186.565 391.656 187.427 391.656 188.289 391.656C188.634 391.656 188.807 391.656 189.152 391.656C190.014 391.656 190.876 391.828 191.739 391.828C192.084 391.828 192.429 391.828 192.774 391.828C193.636 391.828 194.498 391.828 195.361 392C195.706 392 195.878 392 196.223 392C197.43 392 198.638 392 199.672 392C200.707 392 202.087 392 203.122 392C203.467 392 203.639 392 203.984 392C204.847 392 205.709 392 206.571 391.828C206.916 391.828 207.261 391.828 207.606 391.828C208.469 391.828 209.331 391.656 210.193 391.656C210.538 391.656 210.711 391.656 211.056 391.656C211.918 391.656 212.78 391.483 213.643 391.483C213.988 391.483 214.16 391.483 214.505 391.311C215.367 391.139 216.23 391.139 217.265 390.967C217.437 390.967 217.782 390.967 217.955 390.795C218.817 390.622 219.852 390.45 220.714 390.45C220.887 390.45 221.231 390.45 221.404 390.278C222.266 390.106 223.301 389.934 224.164 389.761C224.336 389.761 224.681 389.761 224.853 389.589C225.026 389.589 225.198 389.589 225.371 389.417L242.79 385.112C244.86 384.423 291.945 367.376 317.643 327.426L326.784 335.347L329.371 332.075C330.579 330.526 358.174 294.881 340.927 241.5L353 246.838ZM302.293 129.227C302.293 140.248 300.396 150.924 297.119 160.739C288.323 154.54 278.147 148.685 266.074 143.691C276.078 136.287 282.631 124.405 282.631 110.802C282.631 100.47 278.837 91.1713 272.456 83.939C278.147 81.0117 282.459 78.4287 286.426 75.5013C296.429 91.3435 302.293 109.596 302.293 129.227ZM284.011 213.431C284.184 213.776 292.98 232.717 296.774 257.342H267.109C266.764 236.678 264.005 216.875 259.175 199.139C268.834 196.556 277.975 193.112 286.253 189.324C290.22 195.695 294.187 202.755 297.637 210.676L280.389 205.51L284.011 213.431ZM217.955 144.725C226.578 150.407 234.512 160.222 241.238 173.654C244.343 179.853 247.102 186.396 249.344 193.629C235.029 196.9 219.507 198.622 203.639 198.967V183.813L221.404 150.924L217.955 144.725ZM251.587 201.033C256.416 218.081 259.003 237.367 259.348 257.342H203.467V206.716C220.369 206.543 236.581 204.477 251.587 201.033ZM259.348 265.263C259.003 285.41 256.416 304.524 251.587 321.571C236.581 318.127 220.369 316.233 203.467 315.889V265.263H259.348ZM267.281 265.263H297.981C299.016 275.422 299.189 286.271 297.464 296.947L289.358 291.953L288.151 297.464C288.151 297.808 285.219 311.584 276.595 329.32C271.076 327.082 265.212 325.187 259.175 323.638C264.177 305.901 266.937 285.926 267.281 265.263ZM256.933 191.735C254.519 183.986 251.587 176.753 248.137 170.21C244.515 163.15 240.548 156.778 236.409 151.613C238.134 151.785 240.031 151.957 241.756 151.957C245.033 151.957 248.137 151.613 251.069 150.924C259.348 157.295 270.903 167.627 281.769 182.952C274.353 186.224 265.902 189.152 256.933 191.735ZM241.928 144.036C225.716 144.036 212.09 132.154 209.503 116.829C211.918 115.107 214.85 113.04 218.299 110.802C218.299 110.974 218.299 110.974 218.299 111.146C218.299 124.233 228.993 134.737 241.928 134.737C254.863 134.737 265.557 124.061 265.557 111.146C265.557 103.397 261.762 96.3372 255.898 92.0323C259.348 90.4825 262.452 89.1049 265.212 87.8995C271.248 93.9264 274.87 102.02 274.87 111.146C274.87 129.227 260.038 144.036 241.928 144.036ZM226.061 110.974C226.061 108.908 226.406 107.013 227.096 105.291C232.097 102.536 237.444 99.7812 243.308 97.1982C244.343 96.6816 245.55 96.3372 246.585 95.8206C252.966 97.887 257.623 103.914 257.623 110.802C257.623 119.584 250.552 126.644 241.756 126.644C232.96 126.644 226.061 119.756 226.061 110.974ZM286.426 22.9812C291.6 27.6305 298.844 35.896 299.189 45.1946C299.361 52.7713 294.877 60.0036 285.736 66.7193C275.905 74.1238 267.971 78.4287 240.376 90.1381C224.508 96.8538 211.401 105.464 203.984 110.974C203.984 108.391 203.984 105.464 203.639 102.192C203.812 100.298 204.157 98.0592 204.502 95.9928C207.606 79.8063 215.712 67.9247 228.303 60.6924C236.064 56.3874 243.48 52.7713 250.724 49.3274C268.144 40.8897 282.459 34.174 286.426 22.9812ZM199.672 28.4915C217.782 28.4915 234.684 33.1408 249.517 41.2341C248.827 41.5785 248.137 41.9229 247.447 42.2673C240.376 45.7112 232.442 49.4995 224.508 53.9767C212.78 60.5202 204.329 70.852 199.672 84.1112C195.016 70.852 186.565 60.6924 174.837 53.9767C166.903 49.4995 158.969 45.7112 151.898 42.2673C151.208 41.9229 150.518 41.5785 149.828 41.2341C164.661 32.9686 181.563 28.4915 199.672 28.4915ZM100.156 45.1946C100.329 35.896 107.745 27.6305 112.919 22.9812C116.886 34.174 131.201 41.0619 148.448 49.3274C155.692 52.7713 163.281 56.3874 170.87 60.6924C183.633 67.7525 191.566 79.6341 194.671 95.8206C195.878 101.848 196.051 107.53 196.051 111.663C188.807 106.325 175.354 97.3704 158.969 90.3103C131.374 78.6009 123.44 74.296 113.609 66.8915C104.468 59.8314 99.9837 52.5991 100.156 45.1946ZM102.398 257.514C106.365 232.89 115.161 213.776 115.161 213.604L118.956 205.683L101.708 210.848C105.158 202.927 108.952 195.867 113.092 189.496C121.37 193.456 130.339 196.728 140.17 199.311C135.168 217.048 132.408 236.85 132.236 257.514H102.398ZM139.997 323.638C133.961 325.36 128.097 327.254 122.578 329.32C113.954 311.584 111.022 297.808 111.022 297.464L109.815 291.953L101.708 296.947C99.9837 286.271 100.156 275.422 101.191 265.263H131.891C132.408 285.926 135.168 305.901 139.997 323.638ZM117.403 182.78C128.269 167.627 139.825 157.123 148.103 150.752C151.035 151.44 154.14 151.785 157.417 151.785C159.314 151.785 161.039 151.613 162.763 151.44C158.452 156.778 154.485 162.978 151.035 170.038C147.758 176.753 144.826 183.986 142.239 191.562C133.443 189.152 124.992 186.224 117.403 182.78ZM157.417 144.036C139.307 144.036 124.475 129.227 124.475 111.146C124.475 102.02 128.097 93.9264 134.133 87.8995C136.893 89.2771 139.997 90.6547 143.447 92.0323C137.583 96.3372 133.788 103.225 133.788 111.146C133.788 124.233 144.481 134.737 157.417 134.737C170.525 134.737 181.046 124.061 181.046 111.146C181.046 110.974 181.046 110.974 181.046 110.802C184.495 113.04 187.427 115.107 189.842 116.829C187.255 132.154 173.629 144.036 157.417 144.036ZM152.588 95.9928C153.622 96.5094 154.657 96.8538 155.865 97.3704C161.729 99.7812 167.248 102.536 172.077 105.464C172.767 107.186 173.112 109.08 173.112 111.146C173.112 119.928 166.04 126.988 157.244 126.988C148.448 126.988 141.377 119.928 141.377 111.146C141.549 104.086 146.206 98.0592 152.588 95.9928ZM112.747 75.8457C116.886 78.7731 121.025 81.3561 126.717 84.2834C120.335 91.5157 116.541 100.814 116.541 111.146C116.541 124.578 123.095 136.459 133.098 144.036C121.198 149.03 110.849 154.884 102.053 161.083C98.7764 151.096 96.8792 140.592 96.8792 129.571C97.0517 109.596 102.916 91.3435 112.747 75.8457ZM86.0135 319.333L83.5989 315.2L73.768 323.638C71.1809 319.505 67.0416 311.928 64.1096 301.596C58.073 280.244 59.6253 258.03 68.9388 235.645L72.5607 226.691L57.2107 233.578C62.5573 216.703 80.4944 175.548 133.961 152.129C119.99 164.7 102.398 185.191 91.1876 215.498L88.4281 222.902L104.64 217.909C98.6039 233.406 87.3933 269.395 94.982 304.179L96.1893 309.69L104.468 304.524C107.572 315.889 116.713 343.268 137.928 367.72C121.715 358.421 99.6388 342.752 86.0135 319.333ZM171.215 380.807C171.042 380.807 170.87 380.807 170.697 380.635C169.835 380.463 168.972 380.291 168.283 379.946C168.11 379.946 167.765 379.774 167.593 379.774C166.903 379.602 166.213 379.43 165.523 379.257C165.178 379.085 164.833 379.085 164.488 378.913C163.971 378.741 163.281 378.569 162.763 378.396C162.246 378.224 161.901 378.052 161.384 377.88C160.866 377.708 160.521 377.535 160.004 377.363C159.659 377.191 159.487 377.191 159.142 377.019C144.309 364.621 133.788 349.812 126.544 336.208C131.719 334.314 137.065 332.42 142.584 331.042C144.999 338.791 147.931 346.023 151.38 352.567C157.417 364.621 164.661 374.264 172.422 380.807C171.905 380.807 171.56 380.807 171.215 380.807ZM195.706 383.735C181.735 381.84 168.455 369.787 158.107 349.123C155.002 342.924 152.243 336.38 150.001 329.148C164.316 325.876 179.838 324.154 195.706 323.81V383.735ZM195.706 316.061C178.976 316.405 162.763 318.3 147.586 321.743C142.757 304.696 140.17 285.41 139.825 265.435H195.706V316.061ZM195.706 257.514H139.825C140.17 237.367 142.757 218.253 147.586 201.205C162.591 204.649 178.803 206.543 195.706 206.888V257.514ZM195.706 198.967C179.666 198.622 164.316 196.9 150.001 193.629C152.415 186.569 155.002 179.853 158.107 173.654C164.833 160.222 172.767 150.579 181.39 144.725L178.113 150.924L195.878 183.813V198.967H195.706ZM199.672 174.515L186.91 150.924L199.672 127.333L212.435 150.924L199.672 174.515ZM203.639 383.735V323.81C219.679 324.154 235.029 325.876 249.344 329.148C246.93 336.208 244.343 342.924 241.238 349.123C230.89 369.787 217.61 381.84 203.639 383.735ZM240.376 377.019C240.031 377.191 239.858 377.191 239.514 377.363C238.996 377.535 238.651 377.708 238.134 377.88C237.616 378.052 237.271 378.224 236.754 378.396C236.237 378.569 235.547 378.741 235.029 378.913C234.684 379.085 234.339 379.085 233.994 379.257C233.305 379.43 232.615 379.602 231.925 379.774C231.752 379.774 231.407 379.946 231.235 379.946C230.372 380.118 229.683 380.291 228.82 380.635C228.648 380.635 228.475 380.635 228.303 380.807C227.958 380.807 227.613 380.979 227.44 380.979C235.202 374.436 242.446 364.793 248.482 352.739C251.759 346.023 254.691 338.791 257.278 331.214C262.97 332.764 268.316 334.486 273.318 336.38C265.729 349.812 255.208 364.793 240.376 377.019ZM335.063 301.596C332.131 311.928 327.992 319.505 325.405 323.638L315.574 315.2L313.159 319.333C299.534 342.752 277.457 358.421 261.072 367.72C282.114 343.268 291.428 316.061 294.532 304.524L302.811 309.69L304.018 304.179C311.607 269.568 300.224 233.406 294.36 217.909L310.572 222.902L307.812 215.498C296.602 185.191 279.01 164.7 265.039 152.129C296.774 166.077 315.574 185.88 326.267 201.55C335.063 214.465 339.547 226.174 341.789 233.406L326.267 226.518L329.889 235.473C339.547 258.203 341.099 280.416 335.063 301.596Z"
      fill="black" />
   <path
      d="M86.0135 319.333L83.5989 315.2L73.768 323.638C71.1809 319.505 67.0416 311.928 64.1096 301.596C58.073 280.244 59.6253 258.03 68.9388 235.645L72.5607 226.691L57.2107 233.578C62.5573 216.703 80.4944 175.548 133.961 152.129C119.99 164.7 102.398 185.191 91.1876 215.498L88.4281 222.902L104.64 217.909C98.6039 233.406 87.3933 269.395 94.982 304.179L96.1893 309.69L104.468 304.524C107.572 315.889 116.713 343.268 137.928 367.72C121.715 358.421 99.6388 342.752 86.0135 319.333Z"
      fill="#EBE515" />
   <path
      d="M335.063 301.596C332.131 311.928 327.992 319.505 325.405 323.638L315.574 315.2L313.159 319.333C299.534 342.752 277.457 358.421 261.072 367.72C282.114 343.268 291.428 316.061 294.532 304.524L302.811 309.69L304.018 304.179C311.607 269.568 300.224 233.406 294.36 217.909L310.572 222.902L307.812 215.498C296.602 185.191 279.01 164.7 265.039 152.129C296.774 166.077 315.574 185.88 326.267 201.55C335.063 214.465 339.547 226.174 341.789 233.406L326.267 226.518L329.889 235.473C339.547 258.203 341.099 280.416 335.063 301.596Z"
      fill="#EBE515" />
   <path
      d="M102.398 257.514C106.365 232.89 115.161 213.776 115.161 213.604L118.956 205.683L101.708 210.848C105.158 202.927 108.952 195.867 113.092 189.496C121.37 193.456 130.339 196.728 140.17 199.311C135.168 217.048 132.408 236.85 132.236 257.514H102.398Z"
      fill="#1623ED" />
   <path
      d="M117.403 182.78C128.269 167.627 139.825 157.123 148.103 150.752C151.035 151.44 154.14 151.785 157.417 151.785C159.314 151.785 161.039 151.613 162.763 151.44C158.452 156.778 154.485 162.978 151.035 170.038C147.758 176.753 144.826 183.986 142.239 191.562C133.443 189.152 124.992 186.224 117.403 182.78Z"
      fill="#1623ED" />
   <path
      d="M195.706 198.967C179.666 198.622 164.316 196.9 150.001 193.629C152.415 186.569 155.002 179.853 158.107 173.654C164.833 160.222 172.767 150.579 181.39 144.725L178.113 150.924L195.878 183.813V198.967H195.706Z"
      fill="#1623ED" />
   <path
      d="M195.706 257.514H139.825C140.17 237.367 142.757 218.253 147.586 201.205C162.591 204.649 178.803 206.543 195.706 206.888V257.514Z"
      fill="#1623ED" />
   <path
      d="M139.997 323.638C133.961 325.36 128.097 327.254 122.578 329.32C113.954 311.584 111.022 297.808 111.022 297.464L109.815 291.953L101.708 296.947C99.9837 286.271 100.156 275.422 101.191 265.263H131.891C132.408 285.926 135.168 305.901 139.997 323.638Z"
      fill="#1623ED" />
   <path
      d="M195.706 383.735C181.735 381.84 168.455 369.787 158.107 349.123C155.002 342.924 152.243 336.38 150.001 329.148C164.316 325.876 179.838 324.154 195.706 323.81V383.735Z"
      fill="#1623ED" />
   <path
      d="M203.639 383.735V323.81C219.679 324.154 235.029 325.876 249.344 329.148C246.93 336.208 244.343 342.924 241.238 349.123C230.89 369.787 217.61 381.84 203.639 383.735Z"
      fill="#1623ED" />
   <path
      d="M267.281 265.263H297.981C299.016 275.422 299.189 286.271 297.464 296.947L289.358 291.953L288.151 297.464C288.151 297.808 285.219 311.584 276.595 329.32C271.076 327.082 265.212 325.187 259.175 323.638C264.177 305.901 266.937 285.926 267.281 265.263Z"
      fill="#1623ED" />
   <path
      d="M240.376 377.019C240.031 377.191 239.858 377.191 239.514 377.363C238.996 377.535 238.651 377.708 238.134 377.88C237.616 378.052 237.271 378.224 236.754 378.396C236.237 378.569 235.547 378.741 235.029 378.913C234.684 379.085 234.339 379.085 233.994 379.257L231.925 379.774C231.752 379.774 231.407 379.946 231.235 379.946C230.372 380.118 229.683 380.291 228.82 380.635C228.648 380.635 228.475 380.635 228.303 380.807C227.958 380.807 227.613 380.979 227.44 380.979C235.202 374.436 242.446 364.793 248.482 352.739C251.759 346.023 254.691 338.791 257.278 331.214C262.97 332.764 268.316 334.486 273.318 336.38C265.729 349.812 255.208 364.793 240.376 377.019Z"
      fill="#1623ED" />
   <path
      d="M284.011 213.431C284.184 213.776 292.98 232.717 296.774 257.342H267.109C266.764 236.678 264.005 216.875 259.175 199.139C268.834 196.556 277.975 193.112 286.253 189.324C290.22 195.695 294.187 202.755 297.637 210.676L280.389 205.51L284.011 213.431Z"
      fill="#1623ED" />
   <path
      d="M251.587 201.033C256.416 218.081 259.003 237.367 259.348 257.342H203.467V206.716C220.369 206.543 236.581 204.477 251.587 201.033Z"
      fill="#1623ED" />
   <path
      d="M195.706 316.061C178.976 316.405 162.763 318.3 147.586 321.743C142.757 304.696 140.17 285.41 139.825 265.435H195.706V316.061Z"
      fill="#1F3F1A" />
   <path
      d="M259.348 265.263C259.003 285.41 256.416 304.524 251.587 321.571C236.581 318.127 220.369 316.233 203.467 315.889V265.263H259.348Z"
      fill="#1F3F1A" />
   <path
      d="M217.955 144.725C226.578 150.407 234.512 160.222 241.238 173.654C244.343 179.853 247.102 186.396 249.344 193.629C235.029 196.9 219.507 198.622 203.639 198.967V183.813L221.404 150.924L217.955 144.725Z"
      fill="#1F3F1A" />
   <path
      d="M256.933 191.735C254.519 183.986 251.587 176.753 248.137 170.21C244.515 163.15 240.548 156.778 236.409 151.613C238.134 151.785 240.031 151.957 241.756 151.957C245.033 151.957 248.137 151.613 251.069 150.924C259.348 157.295 270.903 167.627 281.769 182.952C274.353 186.224 265.902 189.152 256.933 191.735Z"
      fill="#1F3F1A" />
   <path
      d="M171.215 380.807C171.042 380.807 170.87 380.807 170.697 380.635C169.835 380.463 168.972 380.291 168.283 379.946C168.11 379.946 167.765 379.774 167.593 379.774L165.523 379.257C165.178 379.085 164.833 379.085 164.488 378.913C163.971 378.741 163.281 378.569 162.763 378.396C162.246 378.224 161.901 378.052 161.384 377.88C160.866 377.708 160.521 377.535 160.004 377.363C159.659 377.191 159.487 377.191 159.142 377.019C144.309 364.621 133.788 349.812 126.544 336.208C131.719 334.314 137.065 332.42 142.584 331.042C144.999 338.791 147.931 346.023 151.38 352.567C157.417 364.621 164.661 374.264 172.422 380.807H171.215Z"
      fill="#1F3F1A" />
   <path
      d="M199.672 28.4915C217.782 28.4915 234.684 33.1408 249.517 41.2341L247.447 42.2673C240.376 45.7112 232.442 49.4995 224.508 53.9767C212.78 60.5202 204.329 70.852 199.672 84.1112C195.016 70.852 186.565 60.6924 174.837 53.9767C166.903 49.4995 158.969 45.7112 151.898 42.2673L149.828 41.2341C164.661 32.9686 181.563 28.4915 199.672 28.4915Z"
      fill="#4F280B" />
   <path
      d="M302.293 129.227C302.293 140.248 300.396 150.924 297.119 160.739C288.323 154.54 278.147 148.685 266.074 143.691C276.078 136.287 282.631 124.405 282.631 110.802C282.631 100.47 278.837 91.1713 272.456 83.939C278.147 81.0117 282.459 78.4287 286.426 75.5013C296.429 91.3435 302.293 109.596 302.293 129.227Z"
      fill="#4F280B" />
   <path d="M199.672 174.515L186.91 150.924L199.672 127.333L212.435 150.924L199.672 174.515Z" fill="#8E6D04" />
   <path
      d="M152.588 95.9928C153.622 96.5094 154.657 96.8538 155.865 97.3704C161.729 99.7812 167.248 102.536 172.077 105.464C172.767 107.186 173.112 109.08 173.112 111.146C173.112 119.928 166.04 126.988 157.244 126.988C148.448 126.988 141.377 119.928 141.377 111.146C141.549 104.086 146.206 98.0592 152.588 95.9928Z"
      fill="black" />
   <path
      d="M226.061 110.974C226.061 108.908 226.406 107.013 227.096 105.291C232.097 102.536 237.444 99.7812 243.308 97.1982C244.343 96.6816 245.55 96.3372 246.585 95.8206C252.966 97.887 257.623 103.914 257.623 110.802C257.623 119.584 250.552 126.644 241.756 126.644C232.96 126.644 226.061 119.756 226.061 110.974Z"
      fill="black" />
   <path
      d="M112.747 75.8457C116.886 78.7731 121.025 81.3561 126.717 84.2834C120.335 91.5157 116.541 100.814 116.541 111.146C116.541 124.578 123.095 136.459 133.098 144.036C121.198 149.03 110.849 154.884 102.053 161.083C98.7764 151.096 96.8792 140.592 96.8792 129.571C97.0517 109.596 102.916 91.3435 112.747 75.8457Z"
      fill="#4F280B" />
   <path
      d="M100.156 45.1946C100.329 35.896 107.745 27.6305 112.919 22.9812C116.886 34.174 131.201 41.0619 148.448 49.3274C155.692 52.7713 163.281 56.3874 170.87 60.6924C183.633 67.7525 191.566 79.6341 194.671 95.8206C195.878 101.848 196.051 107.53 196.051 111.663C188.807 106.325 175.354 97.3704 158.969 90.3103C131.374 78.6009 123.44 74.296 113.609 66.8915C104.468 59.8314 99.9837 52.5991 100.156 45.1946Z"
      fill="#B7550C" />
   <path
      d="M286.426 22.9812C291.6 27.6305 298.844 35.896 299.189 45.1946C299.361 52.7713 294.877 60.0036 285.736 66.7193C275.905 74.1238 267.971 78.4287 240.376 90.1381C224.508 96.8538 211.401 105.464 203.984 110.974C203.984 108.391 203.984 105.464 203.639 102.192C203.812 100.298 204.157 98.0592 204.502 95.9928C207.606 79.8063 215.712 67.9247 228.303 60.6924C236.064 56.3874 243.48 52.7713 250.724 49.3274C268.144 40.8897 282.459 34.174 286.426 22.9812Z"
      fill="#B7550C" />
   <path
      d="M157.417 144.036C139.307 144.036 124.475 129.227 124.475 111.146C124.475 102.02 128.097 93.9264 134.133 87.8995C136.893 89.2771 139.997 90.6547 143.447 92.0323C137.583 96.3372 133.788 103.225 133.788 111.146C133.788 124.233 144.481 134.737 157.417 134.737C170.525 134.737 181.046 124.061 181.046 111.146V110.802C184.495 113.04 187.427 115.107 189.842 116.829C187.255 132.154 173.629 144.036 157.417 144.036Z"
      fill="white" />
   <path
      d="M241.928 144.036C225.716 144.036 212.09 132.154 209.503 116.829C211.918 115.107 214.85 113.04 218.299 110.802V111.146C218.299 124.233 228.993 134.737 241.928 134.737C254.863 134.737 265.557 124.061 265.557 111.146C265.557 103.397 261.762 96.3372 255.898 92.0323C259.348 90.4825 262.452 89.1049 265.212 87.8995C271.248 93.9264 274.87 102.02 274.87 111.146C274.87 129.227 260.038 144.036 241.928 144.036Z"
      fill="white" />
</svg>
